# AST/ASF file generated using VICON BodyLanguage
# -----------------------------------------------
:version 1.10
:name VICON
:units
  mass 1.0
  length 0.45
  angle deg
:documentation
   .ast/.asf automatically generated from VICON data using
   VICON BodyBuilder and BodyLanguage model FoxedUp or BRILLIANT.MOD
:root
   order TX TY TZ RX RY RZ
   axis XYZ
   position 0 0 0  
   orientation 0 0 0 
:bonedata
  begin
     id 1 
     name lhipjoint
     direction 0.710188 -0.616876 0.339259 
     length 2.5669 
     axis 0 0 0  XYZ
  end
  begin
     id 2 
     name lfemur
     direction 0.34202 -0.939693 0  
     length 7.12796  
     axis 0 0 20  XYZ
    dof rx ry rz
    limits (-160.0 20.0)
           (-70.0 70.0)
           (-60.0 70.0)
  end
  begin
     id 3 
     name ltibia
     direction 0.34202 -0.939693 0   
     length 7.58108   
     axis 0 0 20   XYZ
    dof rx
    limits (-10.0 170.0)
  end
  begin
     id 4 
     name lfoot
     direction 0.0669471 -0.183936 0.980656   
     length 2.17365   
     axis -90 7.62852e-016 20   XYZ
    dof rx rz
    limits (-45.0 90.0)
           (-70.0 20.0)
  end
  begin
     id 5 
     name ltoes
     direction 1.53508e-011 -4.21705e-011 1   
     length 1.09427   
     axis -90 7.62852e-016 20   XYZ
    dof rx
    limits (-90.0 20.0)
  end
  begin
     id 6 
     name rhipjoint
     direction -0.700191 -0.625589 0.34405   
     length 2.53115  
     axis 0 0 0  XYZ 
  end
  begin
     id 7 
     name rfemur
     direction -0.34202 -0.939693 0   
     length 7.33006   
     axis 0 0 -20   XYZ
    dof rx ry rz
    limits (-160.0 20.0)
           (-70.0 70.0)
           (-70.0 60.0)
  end
  begin
     id 8 
     name rtibia
     direction -0.34202 -0.939693 0   
     length 7.64926   
     axis 0 0 -20   XYZ
    dof rx
    limits (-10.0 170.0)
 end
 begin
     id 9 
     name rfoot
     direction -0.0688927 -0.189281 0.979503   
     length 2.20493  
     axis -90 -7.62852e-016 -20   XYZ
    dof rx rz
    limits (-45.0 90.0)
           (-20.0 70.0)
  end
  begin
     id 10 
     name rtoes
     direction -1.53567e-011 -4.21933e-011 1   
     length 1.10919   
     axis -90 -7.62852e-016 -20   XYZ
    dof rx
    limits (-90.0 20.0)
  end
  begin
     id 11 
     name lowerback
     direction -0.0167868 0.989873 -0.140959   
     length 2.14596   
     axis 0 0 0   XYZ
    dof rx ry rz
    limits (-20.0 45.0)
           (-30.0 30.0)
           (-30.0 30.0)
  end
  begin
     id 12 
     name upperback
     direction 0.0129109 0.998033 0.0613525   
     length 2.10457   
     axis 0 0 0   XYZ
    dof rx ry rz
    limits (-20.0 45.0)
           (-30.0 30.0)
           (-30.0 30.0)
  end
  begin
     id 13 
     name thorax
     direction 0.0177047 0.991119 0.131797   
     length 2.17652   
     axis 0 0 0   XYZ
    dof rx ry rz
    limits (-20.0 45.0)
           (-30.0 30.0)
           (-30.0 30.0)
  end
  begin
     id 14 
     name lowerneck
     direction -0.0336893 0.997548 0.0613464   
     length 1.8912   
     axis 0 0 0   XYZ
    dof rx ry rz
    limits (-20.0 45.0)
           (-30.0 30.0)
           (-30.0 30.0)
  end
  begin
     id 15 
     name upperneck
     direction 0.0435909 0.997179 -0.0611028   
     length 1.8829   
     axis 0 0 0   XYZ
    dof rx ry rz
    limits (-20.0 45.0)
           (-30.0 30.0)
           (-30.0 30.0)
  end
  begin
     id 16
     name head
     direction 0.0175076 0.999444 -0.0283782  
     length 1.93197  
     axis 0 0 0   XYZ
    dof rx ry rz
    limits (-20.0 45.0)
           (-30.0 30.0)
           (-30.0 30.0)
  end
  begin
     id 17 
     name lclavicle
     direction 0.919164 0.389875 0.0559876  
     length 3.60004  
     axis 0 0 0   XYZ
    dof ry rz
    limits (-20.0 10.0)
           (0.0 20.0)
  end
  begin
     id 18 
     name lhumerus
     direction 1 -4.48958e-011 6.89191e-027   
     length 5.43301   
     axis 180 -30 -90   XYZ
    dof rx ry rz
    limits (-60.0 90.0)
           (-90.0 90.0)
           (-90.0 90.0)
  end
  begin
     id 19
     name lradius
     direction 1 -4.4897e-011 3.24727e-027   
     length 3.15936   
     axis 180 -30 -90   XYZ
    dof rx
    limits (-10.0 170.0)
  end
  begin
     id 20
     name lwrist
     direction 1 -4.4897e-011 9.00228e-027   
     length 1.57968   
     axis -6.29373e-015 90 90   XYZ
    dof ry
    limits (-180.0 0.0)
 end
  begin
     id 21 
     name lhand
     direction 1 -4.48968e-011 1.80042e-026   
     length 0.712827   
     axis -1.14882e-014 90 90   XYZ
    dof rx rz
    limits (-90.0 90.0)
           (-45.0 45.0)
  end
  begin
     id 22 
     name lfingers
     direction 1 -4.49019e-011 3.60267e-026   
     length 0.574699   
     axis -2.29769e-014 90 90   XYZ
    dof rx
    limits (0.0 90.0)
  end
  begin
     id 23
     name lthumb
     direction 0.707107 -6.3498e-011 0.707107   
     length 0.825157   
     axis -90 45 5.37419e-014   XYZ
    dof rx rz
    limits (-45.0 45.0)
           (-45.0 45.0)
  end
  begin
     id 24 
     name rclavicle
     direction -0.890334 0.455305 -0.00132111   
     length 3.51494  
     axis 0 0 0   XYZ 
    dof ry rz
    limits (-10.0 20.0)
           (-20.0 0.0)
  end
  begin
     id 25 
     name rhumerus
     direction -1 -4.48967e-011 5.07175e-028  
     length 5.34194   
     axis 180 30 90   XYZ
    dof rx ry rz
    limits (-90.0 60.0)
           (-90.0 90.0)
           (-90.0 90.0)
  end
  begin
     id 26 
     name rradius
     direction -1 -4.48955e-011 3.30467e-027   
     length 3.19351   
     axis 180 30 90   XYZ
    dof rx
    limits (-10.0 170.0)
  end
  begin
     id 27 
     name rwrist
     direction -1 -4.48968e-011 9.00208e-027   
     length 1.59676   
     axis -6.29373e-015 -90 -90   XYZ
    dof ry
    limits (-180.0 0.0)
  end
  begin
     id 28
     name rhand
     direction -1 -4.49e-011 1.80099e-026   
     length 0.743862   
     axis -1.14882e-014 -90 -90   XYZ
    dof rx rz
    limits (-90.0 90.0)
           (-45.0 45.0)
  end
  begin
     id 29
     name rfingers
     direction -1 -4.49009e-011 3.6023e-026   
     length 0.599721   
     axis -2.29769e-014 -90 -90   XYZ
    dof rx
    limits (0.0 90.0)
  end
  begin
     id 30
     name rthumb
     direction -0.707107 -6.35025e-011 0.707107   
     length 0.861083   
     axis -90 -45 -5.37419e-014   XYZ
    dof rx rz
    limits (-45.0 45.0)
           (-45.0 45.0)
  end
:hierarchy
  begin
    root lhipjoint rhipjoint lowerback
    lhipjoint lfemur
    lfemur ltibia
    ltibia lfoot
    lfoot ltoes
    rhipjoint rfemur
    rfemur rtibia
    rtibia rfoot
    rfoot rtoes
    lowerback upperback
    upperback thorax
    thorax lowerneck lclavicle rclavicle
    lowerneck upperneck
    upperneck head
    lclavicle lhumerus
    lhumerus lradius
    lradius lwrist
    lwrist lhand lthumb
    lhand lfingers
    rclavicle rhumerus
    rhumerus rradius
    rradius rwrist
    rwrist rhand rthumb
    rhand rfingers
  end

#!OML:ASF H:\Martial Arts Walks\Project 1\Capture day 1\Session 1\male.ASF
:FULLY-SPECIFIED
:DEGREES
672
root 0.165487 12.9575 2.74639 16.0978 -27.5327 -17.4369
lowerback 8.84657 0.991768 8.21279
upperback -2.35553 2.59226 4.92583
thorax -7.37091 0.999789 0.225738
lowerneck -3.2364 6.47914 1.58943
upperneck 4.65871 8.51717 0.972775
head 2.03061 4.29429 0.273501
rclavicle -1.29955e-014 -2.46493e-014
rhumerus -77.2422 20.4176 -97.256
rradius 108.909
rwrist -59.3742
rhand 2.23498 -19.6548
rfingers 7.12502
rthumb 27.7293 -47.63
lclavicle -1.29955e-014 -2.46493e-014
lhumerus 52.3348 13.6324 79.5703
lradius 17.3508
lwrist -62.1594
lhand -24.6039 34.866
lfingers 7.12502
lthumb 1.89413 64.8374
rfemur 15.4938 -6.30906 10.0022
rtibia 28.7905
rfoot -22.4996 -30.5059
rtoes -29.3156
lfemur -79.3058 35.2682 -9.60841
ltibia 86.6195
lfoot -12.7785 -7.55265
ltoes 3.74223
673
root 0.165998 12.9547 2.74917 16.1059 -27.5605 -17.3802
lowerback 8.90553 0.992573 8.16519
upperback -2.35412 2.59454 4.91513
thorax -7.40446 1.00182 0.239118
lowerneck -3.25841 6.48558 1.56699
upperneck 4.61925 8.52711 0.968129
head 2.02081 4.29862 0.275811
rclavicle -7.57618e-014 -4.83047e-014
rhumerus -77.2415 20.4304 -97.3145
rradius 108.876
rwrist -59.4078
rhand 2.23222 -19.6364
rfingers 7.12502
rthumb 27.7267 -47.6121
lclavicle -7.57618e-014 -4.83047e-014
lhumerus 52.3196 13.6585 79.506
lradius 17.3823
lwrist -62.0358
lhand -24.6023 34.8523
lfingers 7.12502
lthumb 1.89565 64.8236
rfemur 15.4198 -6.25765 9.96378
rtibia 28.8692
rfoot -22.5099 -30.5987
rtoes -29.128
lfemur -79.302 35.2479 -9.63103
ltibia 86.6455
lfoot -12.9228 -7.42512
ltoes 3.29512
674
root 0.166925 12.9513 2.75166 16.1149 -27.586 -17.3307
lowerback 8.99445 0.99381 8.11572
upperback -2.35441 2.60123 4.90831
thorax -7.45727 1.00552 0.256469
lowerneck -3.27957 6.49026 1.5374
upperneck 4.57241 8.53481 0.970842
head 2.00775 4.30187 0.281237
rclavicle -3.49613e-014 8.54774e-015
rhumerus -77.2486 20.4468 -97.3721
rradius 108.844
rwrist -59.444
rhand 2.23915 -19.6249
rfingers 7.12502
rthumb 27.7333 -47.5995
lclavicle -3.49613e-014 8.54774e-015
lhumerus 52.3177 13.6888 79.4556
lradius 17.4052
lwrist -61.9329
lhand -24.5914 34.8133
lfingers 7.12502
lthumb 1.90621 64.7845
rfemur 15.3483 -6.18832 9.94081
rtibia 28.9458
rfoot -22.5023 -30.7124
rtoes -28.9597
lfemur -79.2956 35.2182 -9.63844
ltibia 86.6768
lfoot -13.1133 -7.19872
ltoes 2.55012
675
root 0.168252 12.9476 2.75374 16.1155 -27.6064 -17.2755
lowerback 9.11408 0.993905 8.05694
upperback -2.35131 2.60852 4.89857
thorax -7.52434 1.00951 0.275162
lowerneck -3.30459 6.48326 1.53783
upperneck 4.51225 8.52715 0.937582
head 1.99411 4.29706 0.27019
rclavicle 1.9133e-015 -1.41137e-014
rhumerus -77.2543 20.4667 -97.4334
rradius 108.814
rwrist -59.4919
rhand 2.25632 -19.5863
rfingers 7.12502
rthumb 27.7497 -47.5582
lclavicle 1.9133e-015 -1.41137e-014
lhumerus 52.3081 13.6599 79.3049
lradius 17.4351
lwrist -61.7492
lhand -24.5467 34.7767
lfingers 7.12502
lthumb 1.9494 64.7475
rfemur 15.2854 -6.10767 9.92011
rtibia 29.0172
rfoot -22.4721 -30.8459
rtoes -28.8313
lfemur -79.2814 35.17 -9.64072
ltibia 86.7119
lfoot -13.362 -6.84154
ltoes 1.40256
676
root 0.169876 12.9433 2.75589 16.1134 -27.6221 -17.2125
lowerback 9.25887 0.99306 7.98704
upperback -2.35139 2.61631 4.88609
thorax -7.60971 1.01362 0.296539
lowerneck -3.32929 6.4758 1.53203
upperneck 4.45029 8.51862 0.915936
head 1.97899 4.29198 0.263628
rclavicle -2.88238e-014 1.47101e-014
rhumerus -77.268 20.488 -97.4949
rradius 108.79
rwrist -59.5392
rhand 2.26525 -19.5631
rfingers 7.12502
rthumb 27.7582 -47.5336
lclavicle -2.88238e-014 1.47101e-014
lhumerus 52.3006 13.6155 79.13
lradius 17.4654
lwrist -61.5847
lhand -24.5039 34.7267
lfingers 7.12502
lthumb 1.9907 64.6972
rfemur 15.2299 -6.02729 9.89186
rtibia 29.0799
rfoot -22.4312 -30.9833
rtoes -28.7617
lfemur -79.2711 35.1077 -9.64709
ltibia 86.7543
lfoot -13.6695 -6.3387
ltoes -0.165455
677
root 0.171653 12.9391 2.75857 16.0913 -27.6258 -17.1143
lowerback 9.42845 0.991649 7.89283
upperback -2.35313 2.62259 4.86113
thorax -7.71154 1.01741 0.31782
lowerneck -3.35748 6.46059 1.53402
upperneck 4.39009 8.49976 0.883327
head 1.96593 4.28164 0.252347
rclavicle 6.2319e-014 2.22639e-014
rhumerus -77.2891 20.5022 -97.5526
rradius 108.772
rwrist -59.5778
rhand 2.26685 -19.5534
rfingers 7.12502
rthumb 27.7598 -47.5237
lclavicle 6.2319e-014 2.22639e-014
lhumerus 52.2935 13.5401 78.9336
lradius 17.5047
lwrist -61.447
lhand -24.4576 34.6659
lfingers 7.12502
lthumb 2.03545 64.636
rfemur 15.1945 -5.9604 9.83058
rtibia 29.1283
rfoot -22.3688 -31.1263
rtoes -28.7685
lfemur -79.2561 35.0136 -9.68154
ltibia 86.8003
lfoot -14.0291 -5.68634
ltoes -2.11378
678
root 0.173488 12.9349 2.76222 16.0698 -27.627 -16.9926
lowerback 9.60709 0.992188 7.77725
upperback -2.35906 2.62929 4.82605
thorax -7.82345 1.02195 0.339924
lowerneck -3.39174 6.44594 1.52557
upperneck 4.33351 8.48117 0.868704
head 1.95379 4.27172 0.248595
rclavicle -3.29486e-014 -7.93151e-014
rhumerus -77.3177 20.5118 -97.6049
rradius 108.762
rwrist -59.6019
rhand 2.25524 -19.5706
rfingers 7.12502
rthumb 27.7487 -47.5427
lclavicle -3.29486e-014 -7.93151e-014
lhumerus 52.2996 13.4602 78.7456
lradius 17.5463
lwrist -61.3713
lhand -24.4218 34.6007
lfingers 7.12502
lthumb 2.07002 64.5704
rfemur 15.1626 -5.90553 9.74223
rtibia 29.1582
rfoot -22.2914 -31.2629
rtoes -28.8486
lfemur -79.2573 34.9083 -9.7493
ltibia 86.8522
lfoot -14.4232 -4.90732
ltoes -4.33148
679
root 0.175168 12.9312 2.76742 16.0563 -27.6345 -16.8522
lowerback 9.78866 0.998216 7.63772
upperback -2.37044 2.64008 4.7825
thorax -7.94328 1.02925 0.365547
lowerneck -3.43079 6.43612 1.49976
upperneck 4.27904 8.46863 0.879426
head 1.94122 4.26516 0.255804
rclavicle 6.46547e-014 3.97569e-014
rhumerus -77.3508 20.5163 -97.6493
rradius 108.752
rwrist -59.6096
rhand 2.23531 -19.6252
rfingers 7.12502
rthumb 27.7296 -47.6004
lclavicle 6.46547e-014 3.97569e-014
lhumerus 52.327 13.3979 78.6024
lradius 17.5866
lwrist -61.3821
lhand -24.4018 34.5215
lfingers 7.12502
lthumb 2.08932 64.491
rfemur 15.1311 -5.85723 9.62821
rtibia 29.1611
rfoot -22.1829 -31.3952
rtoes -29.0046
lfemur -79.2787 34.8096 -9.8542
ltibia 86.9112
lfoot -14.8318 -4.03928
ltoes -6.65169
680
root 0.176618 12.9278 2.77442 16.0623 -27.6482 -16.7003
lowerback 9.9658 1.01043 7.47605
upperback -2.39039 2.65555 4.73389
thorax -8.07031 1.03963 0.397389
lowerneck -3.47132 6.43068 1.46441
upperneck 4.2227 8.46184 0.90315
head 1.92726 4.26163 0.268697
rclavicle 3.82412e-014 3.83654e-014
rhumerus -77.3956 20.5177 -97.6842
rradius 108.745
rwrist -59.6102
rhand 2.21351 -19.7061
rfingers 7.12502
rthumb 27.7088 -47.6846
lclavicle 3.82412e-014 3.83654e-014
lhumerus 52.3729 13.3537 78.5031
lradius 17.6253
lwrist -61.4505
lhand -24.3911 34.4329
lfingers 7.12502
lthumb 2.09961 64.4023
rfemur 15.0949 -5.81091 9.49949
rtibia 29.1292
rfoot -22.0567 -31.5167
rtoes -29.2085
lfemur -79.3285 34.7266 -9.99804
ltibia 86.9792
lfoot -15.241 -3.1239
ltoes -8.91412
681
root 0.177664 12.9254 2.78395 16.0922 -27.6682 -16.5435
lowerback 10.1295 1.02884 7.29434
upperback -2.41526 2.6746 4.68226
thorax -8.19549 1.05286 0.436757
lowerneck -3.51453 6.42836 1.4333
upperneck 4.15798 8.4592 0.92355
head 1.91143 4.26013 0.279898
rclavicle -1.98785e-014 -1.45113e-014
rhumerus -77.442 20.5164 -97.7114
rradius 108.73
rwrist -59.6207
rhand 2.18964 -19.791
rfingers 7.12502
rthumb 27.6859 -47.7732
lclavicle -1.98785e-014 -1.45113e-014
lhumerus 52.4337 13.3124 78.4142
lradius 17.6643
lwrist -61.5132
lhand -24.3879 34.3502
lfingers 7.12502
lthumb 2.1027 64.3196
rfemur 15.0592 -5.76585 9.36252
rtibia 29.0515
rfoot -21.905 -31.6282
rtoes -29.4577
lfemur -79.4104 34.6674 -10.1815
ltibia 87.0562
lfoot -15.6347 -2.2041
ltoes -10.9874
